<svg version="1.1" xmlns="http://www.w3.org/2000/svg" xmlns:xlink="http://www.w3.org/1999/xlink" width="401.83168" height="326" viewBox="0,0,401.83168,326"><g transform="translate(-49.25,-15)"><g data-paper-data="{&quot;isPaintingLayer&quot;:true}" fill-rule="nonzero" stroke="none" stroke-width="0" stroke-linejoin="miter" stroke-miterlimit="10" stroke-dasharray="" stroke-dashoffset="0" style="mix-blend-mode: normal"><path d="M49.25,341v-326h365.5v326z" fill="#000000" stroke-linecap="butt"/><path d="M381.68564,31.13861l62.13366,67.78218" fill="none" stroke-linecap="round"/><path d="M451.08168,104.56931v11.29703" fill="none" stroke-linecap="round"/><path d="M129.11634,290.56683c0,8.24463 -6.86423,14.92822 -15.33168,14.92822c-8.46745,0 -15.33168,-6.68359 -15.33168,-14.92822c0,-8.24463 6.86423,-14.92822 15.33168,-14.92822c8.46745,0 15.33168,6.68359 15.33168,14.92822z" fill="#ffea00" stroke-linecap="butt"/><path d="M387.33416,53.73267c0,8.46745 -7.2255,15.33168 -16.13861,15.33168c-8.91311,0 -16.13861,-6.86423 -16.13861,-15.33168c0,-8.46745 7.2255,-15.33168 16.13861,-15.33168c8.91311,0 16.13861,6.86423 16.13861,15.33168z" fill="#ffe500" stroke-linecap="butt"/></g></g></svg>