<svg version="1.1" xmlns="http://www.w3.org/2000/svg" xmlns:xlink="http://www.w3.org/1999/xlink" width="365.5" height="326" viewBox="0,0,365.5,326"><g transform="translate(-49.25,-15)"><g data-paper-data="{&quot;isPaintingLayer&quot;:true}" fill-rule="nonzero" stroke="none" stroke-width="0" stroke-linecap="butt" stroke-linejoin="miter" stroke-miterlimit="10" stroke-dasharray="" stroke-dashoffset="0" style="mix-blend-mode: normal"><g><path d="M49.25,341v-326h365.5v326z" fill="#000000"/><path d="M139.60644,64.33117c0,18.65767 -15.3542,33.7827 -34.29455,33.7827c-18.94036,0 -34.29455,-15.12503 -34.29455,-33.7827c0,-18.65767 15.3542,-33.7827 34.29455,-33.7827c18.94036,0 34.29455,15.12503 34.29455,33.7827z" fill="#ffe500"/><path d="M396.14109,61.38119c0,19.14062 -15.71547,34.65716 -35.10149,34.65716c-19.38601,0 -35.10149,-15.51654 -35.10149,-34.65716c0,-19.14062 15.71547,-34.65716 35.10149,-34.65716c19.38601,0 35.10149,15.51654 35.10149,34.65716z" fill="#ffe500"/><path d="M398.63119,292.58415c0,20.94581 -17.52185,37.92574 -39.13614,37.92574c-21.61429,0 -39.13614,-16.97993 -39.13614,-37.92574c0,-20.94581 17.52185,-37.92574 39.13614,-37.92574c21.61429,0 39.13614,16.97993 39.13614,37.92574z" fill="#ffe500"/><path d="M146.86881,289.53091c0,20.4038 -15.89611,36.94434 -35.50495,36.94434c-19.60884,0 -35.50495,-16.54054 -35.50495,-36.94434c0,-20.4038 15.89611,-36.94434 35.50495,-36.94434c19.60884,0 35.50495,16.54054 35.50495,36.94434z" fill="#ffe500"/><path d="M269.52228,178.80693c0,23.17409 -18.78631,41.9604 -41.9604,41.9604c-23.17409,0 -41.9604,-18.78631 -41.9604,-41.9604c0,-23.17409 18.78631,-41.9604 41.9604,-41.9604c23.17409,0 41.9604,18.78631 41.9604,41.9604z" fill="#ffea00"/></g></g></g></svg>