<svg version="1.1" xmlns="http://www.w3.org/2000/svg" xmlns:xlink="http://www.w3.org/1999/xlink" width="365.5" height="326" viewBox="0,0,365.5,326"><g transform="translate(-49.25,-15)"><g data-paper-data="{&quot;isPaintingLayer&quot;:true}" fill-rule="nonzero" stroke="none" stroke-width="0" stroke-linecap="butt" stroke-linejoin="miter" stroke-miterlimit="10" stroke-dasharray="" stroke-dashoffset="0" style="mix-blend-mode: normal"><path d="M49.25,341v-326h365.5v326z" fill="#000000"/><path d="M139.60644,64.33117c0,18.65767 -15.3542,33.7827 -34.29455,33.7827c-18.94036,0 -34.29455,-15.12503 -34.29455,-33.7827c0,-18.65767 15.3542,-33.7827 34.29455,-33.7827c18.94036,0 34.29455,15.12503 34.29455,33.7827z" fill="#ffe500"/><path d="M143.36847,169.60712c0,18.65767 -15.3542,33.7827 -34.29455,33.7827c-18.94036,0 -34.29455,-15.12503 -34.29455,-33.7827c0,-18.65767 15.3542,-33.7827 34.29455,-33.7827c18.94036,0 34.29455,15.12503 34.29455,33.7827z" fill="#ffe500"/><path d="M147.13049,286.02484c0,18.65767 -15.3542,33.7827 -34.29455,33.7827c-18.94036,0 -34.29455,-15.12503 -34.29455,-33.7827c0,-18.65767 15.3542,-33.7827 34.29455,-33.7827c18.94036,0 34.29455,15.12503 34.29455,33.7827z" fill="#ffe500"/><path d="M331.63682,61.38054c0,18.65767 -15.3542,33.7827 -34.29455,33.7827c-18.94036,0 -34.29455,-15.12503 -34.29455,-33.7827c0,-18.65767 15.3542,-33.7827 34.29455,-33.7827c18.94036,0 34.29455,15.12503 34.29455,33.7827z" fill="#ffe500"/><path d="M331.06593,166.0375c0,18.65767 -15.3542,33.7827 -34.29455,33.7827c-18.94036,0 -34.29455,-15.12503 -34.29455,-33.7827c0,-18.65767 15.3542,-33.7827 34.29455,-33.7827c18.94036,0 34.29455,15.12503 34.29455,33.7827z" fill="#ffe500"/><path d="M336.06594,284.31218c0,18.65767 -15.3542,33.7827 -34.29455,33.7827c-18.94036,0 -34.29455,-15.12503 -34.29455,-33.7827c0,-18.65767 15.3542,-33.7827 34.29455,-33.7827c18.94036,0 34.29455,15.12503 34.29455,33.7827z" fill="#ffe500"/></g></g></svg>